<?xml version="1.0" encoding="UTF-8"?> <svg xmlns="http://www.w3.org/2000/svg" id="Layer_1" data-name="Layer 1" viewBox="0 0 1080 1080"><defs><style>.cls-1{fill:#efefef;}.cls-2{fill:#ff492c;}.cls-3{fill:#fdb531;}.cls-4{fill:#2c41d6;}.cls-10,.cls-11,.cls-12,.cls-15,.cls-17,.cls-19,.cls-22,.cls-23,.cls-24,.cls-25,.cls-27,.cls-31,.cls-32,.cls-33,.cls-34,.cls-36,.cls-37,.cls-5,.cls-9{fill:none;}.cls-5{stroke:#fc4c36;stroke-width:1.3px;}.cls-17,.cls-22,.cls-23,.cls-24,.cls-25,.cls-33,.cls-34,.cls-37,.cls-5{stroke-miterlimit:10;}.cls-20,.cls-6{fill:#171733;}.cls-6{opacity:0.2;}.cls-7{fill:#00a199;}.cls-8{fill:#e3e3e3;}.cls-9{stroke:#000;}.cls-10,.cls-11,.cls-12,.cls-15,.cls-19,.cls-27,.cls-31,.cls-32,.cls-36,.cls-9{stroke-linecap:round;stroke-linejoin:round;}.cls-10,.cls-36,.cls-9{stroke-width:0.9px;}.cls-10,.cls-11,.cls-12,.cls-15{stroke:#181818;}.cls-11{stroke-width:1.95px;}.cls-12{stroke-width:1.27px;stroke-dasharray:7.81;}.cls-13{fill:#964ae7;}.cls-14{fill:#fff;}.cls-15{stroke-width:0.98px;}.cls-16{fill:#15175c;}.cls-17{stroke:#00a198;stroke-width:0.88px;}.cls-18{fill:#161632;}.cls-19,.cls-23,.cls-24,.cls-25,.cls-31,.cls-32,.cls-33{stroke:#161632;}.cls-19{stroke-width:1.03px;}.cls-20{opacity:0.15;}.cls-21{fill:#f7f7f7;}.cls-22{stroke:#333349;stroke-width:1.21px;}.cls-23,.cls-31{stroke-width:1.5px;}.cls-24{stroke-width:1.2px;}.cls-25{stroke-width:1.31px;}.cls-26{fill:#e88862;}.cls-27{stroke:#0e101c;stroke-width:1.34px;}.cls-28{fill:#f7ae9d;}.cls-29{fill:#0d1119;}.cls-30{fill:#0e101c;}.cls-32,.cls-33{stroke-width:1.64px;}.cls-34{stroke:#221f1f;stroke-width:1.8px;}.cls-35{fill:#fc4c36;}.cls-36{stroke:#e5e1e1;}.cls-37{stroke:#ffb611;stroke-width:1.38px;}</style></defs><rect class="cls-1" x="672.72" y="175.07" width="260.49" height="144.72"></rect><polygon class="cls-2" points="914.23 226.83 851.55 352.2 985.2 352.2 914.23 226.83"></polygon><rect class="cls-3" x="382.15" y="300.27" width="491.31" height="314.72"></rect><rect class="cls-4" x="131.23" y="285.98" width="219.86" height="181.61" rx="7.63"></rect><circle class="cls-5" cx="147.67" cy="480.02" r="145.14"></circle><circle class="cls-6" cx="253.67" cy="315.31" r="75.1"></circle><circle class="cls-7" cx="268.83" cy="298.77" r="75.1"></circle><path class="cls-8" d="M278.57,274.55H383.9a0,0,0,0,1,0,0V611.28a0,0,0,0,1,0,0H267.62a0,0,0,0,1,0,0V285.5A11,11,0,0,1,278.57,274.55Z"></path><rect class="cls-9" x="271.44" y="282.19" width="600.8" height="416.68" rx="14.14"></rect><line class="cls-10" x1="295.88" y1="612.09" x2="836.92" y2="612.09"></line><line class="cls-10" x1="385.11" y1="339.96" x2="385.11" y2="612.67"></line><line class="cls-10" x1="370.58" y1="307.25" x2="629.8" y2="307.25"></line><line class="cls-10" x1="772.72" y1="306.04" x2="868.44" y2="306.04"></line><line class="cls-10" x1="352.41" y1="418.69" x2="286.99" y2="418.69"></line><line class="cls-10" x1="362.1" y1="384.78" x2="297.62" y2="384.78"></line><line class="cls-10" x1="347.56" y1="353.28" x2="293.04" y2="353.28"></line><path class="cls-10" d="M296.69,323h0Z"></path><path class="cls-10" d="M300.32,302.41h0Z"></path><line class="cls-10" x1="296.69" y1="313.31" x2="312.62" y2="313.31"></line><line class="cls-10" x1="363.31" y1="596.75" x2="336.41" y2="596.75"></line><line class="cls-10" x1="185.25" y1="526.5" x2="255.67" y2="526.5"></line><line class="cls-11" x1="222.12" y1="794.3" x2="484.99" y2="794.3"></line><line class="cls-11" x1="607.6" y1="794.47" x2="864.44" y2="794.47"></line><path class="cls-12" d="M853.26,595.28c.41-25.23,24-44.87,48.52-50.89s50.17-2.1,75.38-1.12,52.49-1.79,71.56-18.32c13.85-12,21.46-29.81,25.36-47.72a153.24,153.24,0,0,0-3.28-77.52"></path><path class="cls-12" d="M203.64,200.89c31.89-28.06,77.31-35.46,119.71-33,22.49,1.32,45.24,5.21,65.3,15.47,14.77,7.56,27.68,18.37,42.3,26.23a122.68,122.68,0,0,0,89.74,10.1"></path><path class="cls-10" d="M146.53,605.3a40.25,40.25,0,0,0-19.45,14.64c-1.36,1.92-2.59,4.1-2.57,6.45a10.26,10.26,0,0,0,2.72,6.21c12.9,15.62,41,8.83,54.57,23.91,7,7.77,7.73,20.22,2.33,29.17s-16.26,14-26.67,13.23"></path><line class="cls-10" x1="509.87" y1="354.49" x2="432.27" y2="432.1"></line><line class="cls-10" x1="541.37" y1="362.97" x2="457.08" y2="447.26"></line><line class="cls-10" x1="559.54" y1="385.99" x2="482.88" y2="462.64"></line><circle class="cls-13" cx="320.25" cy="513.43" r="30.69"></circle><line class="cls-10" x1="340.3" y1="505.5" x2="375.02" y2="505.5"></line><line class="cls-10" x1="830.46" y1="385.99" x2="791.7" y2="385.99"></line><line class="cls-10" x1="807.45" y1="400.12" x2="829.34" y2="400.12"></line><path class="cls-14" d="M724.71,235.57h84.82c25.63,0,46.41-20,46.41-44.76h0c0-24.72-20.78-44.76-46.41-44.76h-35c-25.63,0-46.41,20-46.41,44.76l3.74,23.78"></path><path class="cls-15" d="M724.71,227.3h84.82c25.63,0,46.41-20,46.41-44.76h0c0-24.72-20.78-44.76-46.41-44.76h-35c-25.63,0-46.41,20-46.41,44.76l3.74,23.78"></path><line class="cls-15" x1="816.63" y1="161.7" x2="774.72" y2="161.7"></line><line class="cls-15" x1="797.84" y1="177" x2="762.42" y2="177"></line><line class="cls-15" x1="810.51" y1="196.67" x2="778.14" y2="196.67"></line><path class="cls-16" d="M266.81,274.55h602.3a0,0,0,0,1,0,0V285a15.36,15.36,0,0,1-15.36,15.36H282.17A15.36,15.36,0,0,1,266.81,285V274.55a0,0,0,0,1,0,0Z" transform="translate(1135.92 574.94) rotate(180)"></path><circle class="cls-17" cx="983.61" cy="332.98" r="79.18"></circle><path class="cls-18" d="M975.06,792.58l-28.94-28.94a3.45,3.45,0,1,0-4.87,4.88l28.93,28.93a3.45,3.45,0,1,0,4.88-4.87Z"></path><path class="cls-18" d="M182.73,239.35l-28.94-28.94a3.44,3.44,0,0,0-4.87,4.87l28.94,28.94a3.44,3.44,0,1,0,4.87-4.87Z"></path><polyline class="cls-19" points="816.46 728.63 901.43 728.63 901.43 585.75"></polyline><polyline class="cls-19" points="866.03 241.25 897.03 241.25 897.03 276.63"></polyline><polygon class="cls-20" points="501.14 790.36 -95.72 864.93 -103 945 1189 941.36 1174.44 890.41 600.09 794.47 501.14 790.36"></polygon><path class="cls-21" d="M487.34,615.27l207.78-3.78-.35-214s-93-28.37-97.86-28.37l-9.41-.76c-13.12,0-105.08,19.8-105.08,19.8L492,463.48Z"></path><path class="cls-22" d="M685.84,572.74a59.4,59.4,0,0,1-30.29,21.34"></path><path class="cls-22" d="M540.87,555A127.32,127.32,0,0,1,507,464"></path><path class="cls-22" d="M492.23,544.71a517.39,517.39,0,0,1,5.45-59.21"></path><polygon class="cls-20" points="533.09 625.76 492.4 488.9 485.3 618.19 533.09 625.76"></polygon><path class="cls-23" d="M491.45,458.19l7.58,23"></path><path class="cls-23" d="M593,418.28c4.33,64.63.68,121.15-.49,183.09"></path><circle class="cls-23" cx="585.03" cy="463.04" r="1.98"></circle><circle class="cls-23" cx="585.03" cy="428.95" r="1.98"></circle><circle class="cls-23" cx="584.59" cy="535.17" r="1.98"></circle><circle class="cls-23" cx="582.17" cy="571.46" r="1.98"></circle><circle class="cls-23" cx="584.81" cy="498.45" r="1.98"></circle><path class="cls-24" d="M670.47,473c.29.15,0-.38-.35-.28a80.3,80.3,0,0,1-36.31,3c-.51,3.65.21,8,.5,11.63a101,101,0,0,0,35.59-2.52C670.09,479.79,670.29,478.06,670.47,473Z"></path><path class="cls-20" d="M634,486.72l1,22.41a4.2,4.2,0,0,0,.91,2.93,4.35,4.35,0,0,0,2,.92c9.91,2.46,20.41.68,30.36-1.63a2.9,2.9,0,0,0,1.92-1,245.09,245.09,0,0,0-.19-26.51"></path><path class="cls-25" d="M433.2,470.75a150.83,150.83,0,0,1,1.85-46"></path><path class="cls-26" d="M637.28,285.46a43.58,43.58,0,0,0-86.22-12.74,42.86,42.86,0,0,0-.48,5,56.78,56.78,0,0,0-4.35,14.62l-.25,1.58c-4.05,25.65,8.72,48.32,33.42,52.22l8.64,1.37c24.7,3.9,46.54-14,50.59-39.65l0-.23A50.21,50.21,0,0,0,637.28,285.46Z"></path><circle class="cls-26" cx="639.82" cy="291.1" r="8.23"></circle><circle class="cls-26" cx="548.39" cy="277.12" r="8.23"></circle><path class="cls-27" d="M638.1,291.91a6,6,0,0,1,4.91-3.33c.4,0,.93.13.89.52"></path><path class="cls-27" d="M545.08,274a6.57,6.57,0,0,1,3.23,6"></path><circle class="cls-28" cx="564.72" cy="292.88" r="4.44"></circle><circle class="cls-28" cx="616.12" cy="301" r="4.44"></circle><path class="cls-26" d="M593.59,322.17h0c8.73,0,14.53,6.56,14.53,15.29v52.12c-2,8-6.82,3.67-11.21,10.56-3.49,5.47-3.41,13.11-3.85,17.48l-2.72-12.49a12.82,12.82,0,0,0-5.85-8.47c-7.6-4.44-6.71-12.33-6.71-20.09V338A15.81,15.81,0,0,1,593.59,322.17Z"></path><path class="cls-29" d="M608.51,346.6l-30.85,24.62L577.48,345s9.67,1.61,16.52,2.42A52.15,52.15,0,0,0,608.51,346.6Z"></path><path class="cls-30" d="M608.42,278.75l2.77.78a1.79,1.79,0,0,0,1.32-.17,1.77,1.77,0,0,0,.78-1,1.72,1.72,0,0,0-1.19-2.11l-2.77-.79a1.78,1.78,0,0,0-1.32.17,1.72,1.72,0,0,0-.62,2.35,1.85,1.85,0,0,0,1,.79Z"></path><path class="cls-30" d="M577.87,274.4l2.87-.17a1.83,1.83,0,0,0,1.21-.5,1.73,1.73,0,0,0,0-2.43,1.76,1.76,0,0,0-1.21-.5l-2.87.17a1.79,1.79,0,0,0-1.21.5,1.75,1.75,0,0,0-.51,1.21,1.69,1.69,0,0,0,.51,1.21,1.71,1.71,0,0,0,1.21.51Z"></path><path class="cls-30" d="M583.39,281.48a13.61,13.61,0,0,0-6-1,1.75,1.75,0,0,0-1.71,1.72,1.73,1.73,0,0,0,1.71,1.71,13,13,0,0,1,2.57.1l-.46-.06a12,12,0,0,1,3,.8,1.69,1.69,0,0,0,1.32-.17,1.72,1.72,0,0,0,.62-2.35,2,2,0,0,0-1-.78Z"></path><path class="cls-30" d="M609.71,285.63a15.7,15.7,0,0,0-6-1,1.85,1.85,0,0,0-1.21.5,1.78,1.78,0,0,0-.5,1.21,1.74,1.74,0,0,0,1.71,1.72,10.11,10.11,0,0,1,2.2.08l-.46-.06a18.41,18.41,0,0,1,3.37.82,1.72,1.72,0,0,0,.92-3.31Z"></path><path class="cls-30" d="M581.57,296.66a17.16,17.16,0,0,0,13.34,4.61,3.29,3.29,0,0,0,2.12-.88,3,3,0,0,0,.87-2.12c-.06-1.47-1.32-3.17-3-3a13.67,13.67,0,0,1-2.86,0l-.36,0c.11,0,.67.11.26,0l-.71-.13a13.3,13.3,0,0,1-1.47-.39c-.23-.07-.45-.15-.68-.24s-.49-.2-.06,0,0,0,0,0c-.44-.2-.86-.42-1.28-.66a13.05,13.05,0,0,1-1.2-.79c-.07-.05-.42-.31,0,0s0,0-.05,0l-.6-.54a3,3,0,1,0-4.23,4.23Z"></path><path class="cls-29" d="M555.6,246a64.86,64.86,0,0,0-4,38.85,164.73,164.73,0,0,1,15.34-29,7.06,7.06,0,0,1,2.61-2.66,14,14,0,0,1,5.54-.95c14.83-.59,30.12-1.14,44.85,2.29,2.28.54,4.71,1.26,6.09,2.68a6.63,6.63,0,0,1,1.54,3.26l7.53,29.77L641,269.53c.88-3,1.76-6.15,1.13-9.34-1-5.18-5.8-9.87-10.42-14.27-5.67-5.41-11.57-11-19.62-14.58S595,226.5,586,225.6c-5.22-.53-10.66-.94-15.36.27C561,228.35,558,236.46,556,243.64c-2.16,7.8-3.12,8.55-4.78,17"></path><path class="cls-6" d="M563.59,382.11c-1,7.76-.1,14,2.6,22.15,2.27-5,9.12-8.2,14-10.72-4.11-5.15-2.2-18.9-2.31-24.52S565.09,370.61,563.59,382.11Z"></path><path class="cls-31" d="M579.09,393.87c1.18.47,2.19.91,3.13,1.32a15.18,15.18,0,0,1,8.87,11.65c.77,5.25,1.84,10.49,1.86,15.73"></path><path class="cls-26" d="M714.32,486c17.07,18.81,38.74,31.84,60,45.09,7.09,4.43,32.42.24,38.8-4.88,55.65-44.65,126.35-100.73,176.7-151.5,9.7-9.78-14-19-23.95-27.47-11.13-9.52-12.91-11.85-22.35-1.77C899.9,392,837.37,436.67,784.58,479c8.53-.69,9.54-.48,18.07-1.16-19.72-12.32-37-18.7-52-35.23-9.26-10.2-27.8-6.72-36,2.81-9.9,11.58-6.48,25.72,2.81,35.95Z"></path><path class="cls-6" d="M622.31,382.11c1,7.76.1,14-2.6,22.15-2.27-5-8.68-7.87-13.57-10.39C609,389.36,607.9,374.64,608,369S620.81,370.61,622.31,382.11Z"></path><path class="cls-31" d="M606.8,393.87c-1.17.47-2.18.91-3.12,1.32a15.16,15.16,0,0,0-8.87,11.65c-.77,5.25-1.84,10.49-1.86,15.73"></path><path class="cls-23" d="M601.71,453.8l-1.06,132"></path><path class="cls-21" d="M724.25,511.93c15.09-12.49,41.18-37.15,53.27-52.68-20-24.57-29.3-39.54-42.57-51-54.87-47.24-104.94,13.43-69,54C685.8,484.56,708.5,489.52,724.25,511.93Z"></path><path class="cls-22" d="M686.55,392.32a97.55,97.55,0,0,0-11.7,37.13"></path><path class="cls-23" d="M691.18,481.44c13.19,13.19,23.06,17.37,32.55,28.63.4.48.91,1,1.54.94s10.1-9.84,14.6-14.52"></path><polygon class="cls-20" points="724.34 511.34 775.08 463.32 769.49 456.19 717.28 503.49 724.34 511.34"></polygon><path class="cls-26" d="M494.81,407.87c13.08,8,19.62,25.92,10.19,36.5l-43.52,48.79-23.23,26,1.53,12.56.08,0c7.25,5,34.76,24.59,59.82,42.75a37.51,37.51,0,0,1,13.81,40.67A77.79,77.79,0,0,0,512,650.66c-65.46-44.93-26.88-16.81-92.36-61.74-15.86-10.88-40.2-31.68-50.32-47.21-13.49-20.71-7.48-47.47,5.3-61.8,23.37-26.21,37.66-51,61-77.25C445,392.14,480.18,398.91,494.81,407.87Z"></path><path class="cls-21" d="M409.22,413.74c18.68-11.76,36.58-20.89,60.56-27.26,66.59-17.7,128.47,32.15,75.76,72.34-15,11.44-48.48,21.58-80,36.62C448.14,476.28,417.82,436.52,409.22,413.74Z"></path><polygon class="cls-20" points="471.22 492.39 465.43 496.14 370.25 486.05 413.37 428.41 406.62 414.76 421.95 402.83 471.22 492.39"></polygon><path class="cls-32" d="M414.26,528.46q9.78-1.66,19.7-2.82a120.7,120.7,0,0,1-18.46-7.76"></path><path class="cls-33" d="M499.7,593.52A45.82,45.82,0,0,1,512,583.35"></path><path class="cls-22" d="M771.09,457.32l-32.21,34.06"></path><path class="cls-26" d="M965.92,382.79A174.92,174.92,0,0,0,991,384.46a107.53,107.53,0,0,0,12.17-.84,134,134,0,0,0,18.37-3.22,24.51,24.51,0,0,0,18.26-21.19,19.34,19.34,0,0,0-.45-10.17l-2.57-6.09a25.61,25.61,0,0,0-9.15-9.14l-6.09-2.57a25.54,25.54,0,0,0-13.55,0,90.32,90.32,0,0,1-10.9,2.21l6.77-.91c-12.59,1.69-25.36.89-37.91-.74a28.38,28.38,0,0,0-18,7.47,28.44,28.44,0,0,0-7.47,18l.91,6.78a25.45,25.45,0,0,0,6.56,11.25l5.16,4a25.27,25.27,0,0,0,12.87,3.48Z"></path><path class="cls-31" d="M791.9,486.24a31.27,31.27,0,0,1,3.49-17.32,102.46,102.46,0,0,1,6.14,17.15"></path><path class="cls-31" d="M939.14,349.63A17,17,0,0,0,952,360.1"></path><line class="cls-34" x1="521.19" y1="606.56" x2="688.48" y2="606.56"></line><line class="cls-10" x1="381.14" y1="567.46" x2="507.2" y2="567.46"></line><line class="cls-10" x1="599.51" y1="566.87" x2="767.47" y2="566.87"></line><circle class="cls-35" cx="553.48" cy="567.09" r="25.03"></circle><circle class="cls-10" cx="551.68" cy="568.64" r="25.03"></circle><path class="cls-14" d="M545.18,557.64v21A1.57,1.57,0,0,0,547.6,580l16.92-11a1.57,1.57,0,0,0-.06-2.66l-16.92-10A1.56,1.56,0,0,0,545.18,557.64Z"></path><path class="cls-4" d="M592.24,691.23l33.83,111a12.54,12.54,0,0,1-12,16.19H494.46A12.52,12.52,0,0,1,482.55,802c11-33.53,35.15-107,37-110.75Z"></path><path class="cls-16" d="M486.5,815.55c10.67-13.18,21.63-26.12,32.48-39.16,6.67-8,13.3-16.08,19.77-24.27,2.08-2.63,4.09-5.33,6.29-7.88,1.15-1.34,2.28-2.69,3.41-4,6.85-8.25,13.61-16.58,20.51-24.79s13.95-16.42,21.41-24.17H519.56c-1.86,3.73-26,77.22-37,110.75A12.48,12.48,0,0,0,486.5,815.55Z"></path><path class="cls-16" d="M849.89,694.46H285.38c-8.08,0-17.44-6.92-17.44-15.46V610.48H868v64.85C868,685.85,859.86,694.46,849.89,694.46Z"></path><circle class="cls-14" cx="553.88" cy="653.96" r="29.88"></circle><line class="cls-36" x1="381.48" y1="629.45" x2="339.16" y2="671.77"></line><line class="cls-36" x1="411.76" y1="635.51" x2="370.96" y2="676.31"></line><line class="cls-36" x1="449.31" y1="639.14" x2="405.55" y2="682.9"></line><line class="cls-36" x1="715.79" y1="625.82" x2="679.45" y2="662.16"></line><line class="cls-36" x1="749.71" y1="627.03" x2="713.97" y2="662.77"></line><line class="cls-36" x1="794.53" y1="636.72" x2="764.79" y2="666.45"></line><circle class="cls-14" cx="597.69" cy="672.45" r="9.08"></circle><path class="cls-27" d="M548,284.23c.63,9.23,5.47,17.57,10.19,25.53.36.6,1.06,1.29,1.63.89"></path><ellipse class="cls-29" cx="562.02" cy="310.1" rx="4.15" ry="5.46" transform="translate(-54.66 488.23) rotate(-45)"></ellipse><path class="cls-4" d="M551.68,283.08a21.81,21.81,0,0,0,3-9.08,11.28,11.28,0,0,0-.27-4.63,5,5,0,0,0-5.94-3.42,7.28,7.28,0,0,0-4.15,3.67,13.42,13.42,0,0,0-1.39,5,16.45,16.45,0,0,0,.27,4.8c.36,1.88,1.06,4,2.82,5a4.26,4.26,0,0,0,5-.66,5.6,5.6,0,0,0,1.27-3.51L553,275a3.78,3.78,0,0,0-.35-2.66,3.44,3.44,0,0,0-4.71-1.23,3.27,3.27,0,0,0-1.58,2.06l-.51,3.57-.24,1.67-.14.95-.06.48c-.22,1,.39.49,1.81-1.64l.92-.13H548l.92.13c-.6-.12.93.59.93.58s.45.64.24.23c.07.14.26.74.13.27,0-.17-.11-.34-.16-.52a13.73,13.73,0,0,1-.39-1.8l.13.92a13.44,13.44,0,0,1,0-3.47l-.12.92a10.37,10.37,0,0,1,.31-1.55c0-.18.11-.36.17-.53.12-.34.08-.24-.15.3,0-.11.11-.22.16-.34s.25-.42.37-.63c.31-.52-.55.57-.09.12.08-.09.17-.17.26-.26.26-.23.17-.17-.28.19a3.28,3.28,0,0,1,.31-.2c-.55.2-.66.26-.32.17l-.91.12a1.29,1.29,0,0,1,.34,0l-.92-.12c.5.11-.44-.25-.59-.36s-.28-.24-.16-.12.1.07-.28-.38c.25.4-.11-.3-.12-.3s.12.54.12.6l-.12-.92a15.7,15.7,0,0,1-.12,3.56l.12-.92a17.73,17.73,0,0,1-.82,3.38c-.09.27-.2.53-.29.79-.16.42.29-.64.09-.24l-.17.39c-.26.54-.55,1.06-.86,1.57a3.45,3.45,0,1,0,5.95,3.48Z"></path><rect class="cls-37" x="616.44" y="142.91" width="62.94" height="62.94"></rect></svg> 